<?xml version="1.0" encoding="UTF-8" standalone="no"?>
<!-- Uploaded to: SVG Repo, www.svgrepo.com, Generator: SVG Repo Mixer Tools -->

<svg
   xmlns:inkscape="http://www.inkscape.org/namespaces/inkscape"
   xmlns:sodipodi="http://sodipodi.sourceforge.net/DTD/sodipodi-0.dtd"
   xmlns="http://www.w3.org/2000/svg"
   xmlns:svg="http://www.w3.org/2000/svg"
   height="64px"
   width="64px"
   version="1.1"
   id="Layer_1"
   viewBox="0 0 512 512"
   xml:space="preserve"
   sodipodi:docname="icon.svg"
   inkscape:version="1.2 (dc2aedaf03, 2022-05-15)">
   <defs id="defs27" />
   <sodipodi:namedview
   id="namedview25"
   pagecolor="#ffffff"
   bordercolor="#666666"
   borderopacity="1.0"
   inkscape:showpageshadow="2"
   inkscape:pageopacity="0.0"
   inkscape:pagecheckerboard="0"
   inkscape:deskcolor="#d1d1d1"
   showgrid="false"
   inkscape:zoom="0.523125"
   inkscape:cx="471.20669"
   inkscape:cy="388.05257"
   inkscape:window-width="1920"
   inkscape:window-height="1017"
   inkscape:window-x="1912"
   inkscape:window-y="-8"
   inkscape:window-maximized="1"
   inkscape:current-layer="Layer_1" />
<path
   style="fill:#4d4d4d"
   d="m 178.58975,188.132 c 6.534,-6.534 17.132,-6.534 23.666,0 l 295.302,295.301 c 6.535,6.535 6.535,17.131 0,23.666 -3.268,3.268 -7.551,4.902 -11.834,4.901 -4.283,0 -8.566,-1.634 -11.832,-4.901 l -295.302,-295.301 c -6.536,-6.535 -6.535,-17.132 0,-23.666 z"
   id="path2" />
<path
   style="fill:#000000"
   d="m 178.58975,188.132 c 0.297,-0.297 0.611,-0.566 0.925,-0.836 l 318.879,318.879 c -0.27,0.312 -0.539,0.627 -0.836,0.924 -3.268,3.268 -7.551,4.902 -11.834,4.901 -4.283,0 -8.566,-1.634 -11.832,-4.901 l -295.302,-295.301 c -6.536,-6.535 -6.535,-17.132 0,-23.666 z"
   id="path4" />
<path
   style="fill:#face17"
   d="m 57.68075,219.728 38.766,-51.947 -20.816,-61.386 c -2.046,-6.032 -0.489,-12.704 4.015,-17.208 4.504,-4.504 11.175,-6.061 17.208,-4.015 l 61.385,20.816 51.95,-38.766 c 5.103,-3.809 11.929,-4.392 17.605,-1.499 5.676,2.893 9.217,8.756 9.136,15.125 l -0.829,64.815 52.924,37.426 c 5.201,3.678 7.863,9.989 6.867,16.282 -0.996,6.291 -5.479,11.471 -11.561,13.363 l -61.898,19.241 -19.24,61.897 c -1.891,6.082 -7.071,10.565 -13.363,11.561 -0.876,0.138 -1.75,0.206 -2.622,0.206 -5.375,0 -10.494,-2.595 -13.66,-7.072 l -37.426,-52.924 -64.815,0.828 c -6.322,0.051 -12.233,-3.462 -15.125,-9.136 -2.894,-5.674 -2.311,-12.502 1.499,-17.607 z"
   id="path6" />
<polygon
   style="fill:#e6bd15"
   points="173.373,67.274 197.799,80.633 173.373,93.991 160.014,118.417 146.656,93.991 122.23,80.633 146.656,67.274 160.014,42.848 "
   id="polygon8"
   transform="matrix(-1,0,0,1,512.00075,0)" />
<g
   id="g16"
   transform="matrix(-1,0,0,1,512.00075,0)">
	<polygon
   style="fill:#face17"
   points="362.946,384.489 382.703,395.294 362.946,406.1 352.14,425.857 341.335,406.1 321.577,395.294 341.335,384.489 352.14,364.732 "
   id="polygon10" />
	<polygon
   style="fill:#face17"
   points="378.142,19.757 397.9,30.563 378.142,41.368 367.337,61.126 356.531,41.368 336.775,30.563 356.531,19.757 367.337,0 "
   id="polygon12" />
	<polygon
   style="fill:#face17"
   points="490.635,142.514 502.459,148.98 490.635,155.447 484.168,167.271 477.702,155.447 465.877,148.98 477.702,142.514 484.168,130.689 "
   id="polygon14" />
</g>
<g
   id="g22"
   transform="matrix(-1,0,0,1,512.00075,0)">
	<polygon
   style="fill:#e6bd15"
   points="484.792,320.866 492.627,347.615 465.877,339.78 439.129,347.615 446.963,320.866 439.129,294.117 465.877,301.951 492.627,294.117 "
   id="polygon18" />
	<path
   style="fill:#e6bd15"
   d="m 455.82,237.334 c 2.892,-5.675 2.311,-12.501 -1.499,-17.606 l -38.766,-51.947 20.816,-61.387 c 2.046,-6.032 0.49,-12.704 -4.014,-17.208 -0.296,-0.296 -0.6,-0.576 -0.914,-0.846 l -143.215,143.215 1.343,0.417 19.24,61.898 c 1.891,6.082 7.071,10.565 13.363,11.561 0.876,0.138 1.75,0.206 2.622,0.206 5.375,0 10.494,-2.595 13.66,-7.072 l 37.426,-52.924 64.815,0.828 c 6.32,0.053 12.231,-3.46 15.123,-9.135 z"
   id="path20" />
</g>
</svg>
